<?xml version="1.0" encoding="utf-8"?>
<!-- Generator: Adobe Illustrator 27.5.0, SVG Export Plug-In . SVG Version: 6.00 Build 0)  -->
<svg version="1.1" id="Layer_1" xmlns="http://www.w3.org/2000/svg" xmlns:xlink="http://www.w3.org/1999/xlink" x="0px" y="0px"
	 viewBox="0 0 301.115 265.328" style="enable-background:new 0 0 301.115 265.328;" xml:space="preserve">
<g>
	<linearGradient id="SVGID_1_" gradientUnits="userSpaceOnUse" x1="116.1284" y1="63.1599" x2="264.5135" y2="280.9291">
		<stop  offset="0.1124" style="stop-color:#F0C83B"/>
		<stop  offset="0.2416" style="stop-color:#F1563C"/>
		<stop  offset="0.2688" style="stop-color:#E65352"/>
		<stop  offset="0.3232" style="stop-color:#D34F7A"/>
		<stop  offset="0.3666" style="stop-color:#C74C92"/>
		<stop  offset="0.3933" style="stop-color:#C34B9B"/>
		<stop  offset="0.6068" style="stop-color:#00B3C1"/>
		<stop  offset="0.8146" style="stop-color:#00B36C"/>
		<stop  offset="1" style="stop-color:#00B3C1"/>
	</linearGradient>
	<path style="fill:url(#SVGID_1_);" d="M280.762,184.664c-16.04,56.13-74.546,88.628-130.676,72.589
		c-56.131-16.041-88.63-74.547-72.59-130.676c16.04-56.131,74.547-88.63,130.677-72.59
		C264.304,70.028,296.802,128.534,280.762,184.664z"/>
	
		<ellipse transform="matrix(0.6064 -0.7951 0.7951 0.6064 -52.7449 213.5313)" style="fill:#CFD1D2;" cx="189.323" cy="160.045" rx="89.597" ry="89.597"/>
	<g>
		<g>
			
				<linearGradient id="SVGID_00000067232923359976603120000016888123961251110803_" gradientUnits="userSpaceOnUse" x1="24.0518" y1="88.9395" x2="292.3523" y2="88.9395">
				<stop  offset="0.1124" style="stop-color:#F0C83B"/>
				<stop  offset="0.2416" style="stop-color:#F1563C"/>
				<stop  offset="0.2688" style="stop-color:#E65352"/>
				<stop  offset="0.3232" style="stop-color:#D34F7A"/>
				<stop  offset="0.3666" style="stop-color:#C74C92"/>
				<stop  offset="0.3933" style="stop-color:#C34B9B"/>
				<stop  offset="0.7865" style="stop-color:#00B3C1"/>
				<stop  offset="0.8146" style="stop-color:#00B36C"/>
				<stop  offset="1" style="stop-color:#00B3C1"/>
			</linearGradient>
			<path style="fill:url(#SVGID_00000067232923359976603120000016888123961251110803_);" d="M292.352,119.508
				c-0.078-0.292-0.163-0.58-0.243-0.871c0.009,0.028,0.018,0.056,0.027,0.085c-0.009-0.03-0.019-0.06-0.028-0.09
				c-0.13-0.468-0.258-0.937-0.392-1.404c0.126,0.446,0.248,0.894,0.373,1.341c-0.126-0.41-0.255-0.82-0.384-1.229
				c-0.101-0.397-0.201-0.795-0.305-1.191c0.1,0.384,0.196,0.769,0.293,1.154c-0.112-0.354-0.226-0.707-0.34-1.06
				c-0.102-0.445-0.212-0.888-0.319-1.332c0.118,0.392,0.235,0.785,0.35,1.179c0.005,0.02,0.011,0.04,0.016,0.06
				c-0.005-0.019-0.01-0.037-0.015-0.056c0.111,0.378,0.223,0.756,0.331,1.135c-0.116-0.41-0.236-0.818-0.355-1.227
				c-0.191-0.731-0.388-1.46-0.589-2.188c-0.026-0.104-0.049-0.208-0.075-0.312c0.025,0.1,0.047,0.2,0.071,0.3
				c-2.639-9.541-6.168-18.782-10.489-27.823c-10.836-21.055-26.724-37.005-45.601-49.642
				c-22.549-13.143-45.807-19.523-71.416-20.638c-25.798,0.465-49.323,6.353-72.311,18.989
				C71.396,47.13,54.856,63.025,43.178,84.147c-8.647,16.894-14.642,34.544-17.32,53.645c-0.938,8.125-1.694,16.199-1.806,24.389
				c0.261-8.185,1.152-16.237,2.229-24.341c2.91-19.017,9.095-36.538,17.923-53.274c11.752-20.94,28.317-36.652,47.839-48.924
				c22.842-12.532,46.224-18.371,71.849-18.835c25.419,1.006,48.521,7.261,70.933,20.238c18.796,12.495,34.65,28.271,45.469,49.171
				c4.328,8.994,7.859,18.187,10.497,27.682c0.074,0.301,0.143,0.604,0.215,0.906c-2.731-9.089-6.281-17.883-10.57-26.479
				c-11.561-20.09-26.046-35.127-44.811-47.446c-21.814-12.353-44.231-18.237-68.859-19.009c-24.612,0.744-47.009,6.61-68.81,18.951
				C79.243,53.168,64.824,68.205,53.342,88.308c-7.889,16.073-13.224,32.813-15.355,50.876c-0.71,7.671-1.247,15.285-1.168,22.997
				c0.065-7.706,0.739-15.301,1.592-22.949c2.351-17.976,7.891-34.595,15.958-50.504c11.551-19.916,26-34.777,44.679-46.951
				c21.657-12.237,43.91-18.055,68.35-18.799c24.44,0.662,46.692,6.426,68.376,18.609c18.685,12.181,33.134,27.041,44.678,46.974
				c4.292,8.538,7.842,17.276,10.571,26.312c0.105,0.438,0.212,0.876,0.312,1.315c-2.843-8.761-6.455-17.223-10.74-25.518
				c-11.514-19.219-25.715-33.585-44.023-45.248c-21.188-11.516-42.577-16.863-66.302-17.382
				c-23.499,1.112-44.587,6.914-65.309,18.916C87.779,58.654,73.33,73.137,63.508,92.471c-7.076,15.306-11.811,31.05-13.39,48.105
				c-0.646,7.178-0.801,14.4-0.53,21.605c-0.126-7.199,0.167-14.405,0.954-21.558c1.813-16.97,6.734-32.585,13.993-47.732
				c9.893-19.151,24.369-33.458,41.521-44.979c20.579-11.899,41.518-17.651,64.845-18.762c23.538,0.407,44.765,5.634,65.82,16.982
				c18.226,11.522,32.4,25.713,43.892,44.777c4.284,8.234,7.896,16.64,10.738,25.345c0.074,0.325,0.145,0.652,0.217,0.978
				c-2.929-8.324-6.564-16.355-10.816-24.214c-10.796-18.516-25.71-32.247-43.231-43.051
				c-20.447-10.731-41.002-15.588-63.746-15.754c-22.306,1.383-42.277,7.162-61.803,18.879c-16.011,11.27-29.431,25.126-38.3,43.542
				c-6.321,14.489-10.392,29.322-11.423,45.333c-0.408,6.733-0.353,13.487,0.108,20.214c-0.324-6.719-0.239-13.462,0.314-20.166
				c1.26-15.925,5.526-30.638,12.029-44.962c9.731-18.151,22.042-31.549,38.362-43.005c19.383-11.614,39.209-17.344,61.345-18.726
				c22.555,0.055,42.95,4.791,63.263,15.354c17.446,10.667,32.316,24.216,43.097,42.579c4.26,7.808,7.894,15.79,10.819,24.067
				c0.16,0.723,0.32,1.445,0.471,2.171c0.003,0,0.005,0,0.009,0c-0.149-0.711-0.307-1.419-0.464-2.127
				c0.122,0.347,0.243,0.695,0.363,1.043c0.088,0.362,0.177,0.723,0.262,1.086c0.002,0,0.005,0,0.005,0
				c-0.083-0.35-0.169-0.698-0.255-1.047c0.121,0.352,0.244,0.704,0.363,1.058c0.002,0,0.005,0,0.008,0.001l0,0
				C292.351,119.507,292.352,119.508,292.352,119.508z M290.795,113.914c0.191,0.69,0.379,1.381,0.561,2.074
				c-0.112-0.384-0.225-0.767-0.34-1.149C290.942,114.53,290.871,114.221,290.795,113.914z M291.583,117.276
				c-0.072-0.323-0.142-0.647-0.216-0.97c0.114,0.349,0.227,0.698,0.338,1.047c0.08,0.318,0.159,0.637,0.237,0.956
				C291.824,117.965,291.704,117.62,291.583,117.276z M291.717,117.392c0.125,0.395,0.251,0.79,0.373,1.186
				c0.084,0.302,0.171,0.602,0.251,0.905c-0.127-0.379-0.257-0.756-0.386-1.134C291.877,118.029,291.798,117.71,291.717,117.392z"/>
			
				<linearGradient id="SVGID_00000172404083513435832770000009701290361425228421_" gradientUnits="userSpaceOnUse" x1="11.2828" y1="85.8536" x2="290.6963" y2="85.8536">
				<stop  offset="0.1124" style="stop-color:#F0C83B"/>
				<stop  offset="0.2416" style="stop-color:#F1563C"/>
				<stop  offset="0.2688" style="stop-color:#E65352"/>
				<stop  offset="0.3232" style="stop-color:#D34F7A"/>
				<stop  offset="0.3666" style="stop-color:#C74C92"/>
				<stop  offset="0.3933" style="stop-color:#C34B9B"/>
				<stop  offset="0.7865" style="stop-color:#00B3C1"/>
				<stop  offset="0.8146" style="stop-color:#00B36C"/>
				<stop  offset="1" style="stop-color:#00B3C1"/>
			</linearGradient>
			<path style="fill:url(#SVGID_00000172404083513435832770000009701290361425228421_);" d="M233.728,31.79
				c-23.281-13.935-47.382-20.81-73.971-22.265c-26.915,0.101-51.742,6.05-75.815,19.026C62.869,41.625,46.31,58.105,33.012,79.984
				C23.601,97.7,16.953,116.262,13.728,136.4c-1.346,8.524-2.141,17.145-2.445,25.782c0.445-8.631,1.389-17.233,2.867-25.733
				c3.451-20.051,10.297-38.492,19.889-56.045c13.364-21.692,29.953-37.999,50.995-50.896
				c23.931-12.871,48.609-18.771,75.352-18.873c26.4,1.346,50.346,8.096,73.491,21.865c19.244,13.131,35.432,29.607,46.258,51.369
				c4.445,9.636,8.01,19.473,10.56,29.632c-2.551-10.238-6.122-20.154-10.576-29.87C269.272,61.717,253.056,45.061,233.728,31.79z"
				/>
		</g>
		<g>
			<g>
				<path style="fill:#231F20;" d="M13.97,101.41c-0.717-1.077-2.344-1.539-3.697-1.213c-1.492,0.359-2.962,1.224-3.911,2.234
					c-0.857,0.912-1.913,2.151-1.842,3.367c0.076,1.355,1.367,2.574,2.984,2.685c1.858,0.131,3.478-0.965,4.674-2.026
					c1.06-0.944,1.791-2.14,2.031-3.419C14.338,102.364,14.256,101.835,13.97,101.41z"/>
				
					<linearGradient id="SVGID_00000159443119363622793580000007219922435043393429_" gradientUnits="userSpaceOnUse" x1="4.6693" y1="98.4706" x2="9.05" y2="104.0753">
					<stop  offset="0" style="stop-color:#FFFFFF"/>
					<stop  offset="1" style="stop-color:#000000"/>
				</linearGradient>
				<path style="fill:url(#SVGID_00000159443119363622793580000007219922435043393429_);" d="M12.986,101.856
					c-0.606-0.909-1.982-1.3-3.123-1.024c-1.261,0.306-2.503,1.035-3.302,1.888c-0.726,0.771-1.618,1.818-1.556,2.842
					c0.064,1.146,1.154,2.175,2.522,2.268c1.568,0.109,2.934-0.813,3.945-1.712c0.898-0.795,1.514-1.805,1.717-2.888
					C13.295,102.665,13.229,102.217,12.986,101.856z"/>
				<path style="fill:#231F20;" d="M13.97,101.41c-0.717-1.077-2.344-1.539-3.697-1.213c-1.492,0.359-2.962,1.224-3.911,2.234
					c-0.857,0.912-1.913,2.151-1.842,3.367c0.076,1.355,1.367,2.574,2.984,2.685c1.858,0.131,3.478-0.965,4.674-2.026
					c1.06-0.944,1.791-2.14,2.031-3.419C14.338,102.364,14.256,101.835,13.97,101.41z"/>
				
					<linearGradient id="SVGID_00000132050739517667181940000006652538612274481541_" gradientUnits="userSpaceOnUse" x1="4.6693" y1="98.4706" x2="9.05" y2="104.0753">
					<stop  offset="0" style="stop-color:#FFFFFF"/>
					<stop  offset="1" style="stop-color:#000000"/>
				</linearGradient>
				<path style="fill:url(#SVGID_00000132050739517667181940000006652538612274481541_);" d="M12.986,101.856
					c-0.606-0.909-1.982-1.3-3.123-1.024c-1.261,0.306-2.503,1.035-3.302,1.888c-0.726,0.771-1.618,1.818-1.556,2.842
					c0.064,1.146,1.154,2.175,2.522,2.268c1.568,0.109,2.934-0.813,3.945-1.712c0.898-0.795,1.514-1.805,1.717-2.888
					C13.295,102.665,13.229,102.217,12.986,101.856z"/>
			</g>
			<g>
				<path style="fill:#231F20;" d="M30.949,108.668c-0.721-1.076-2.35-1.539-3.701-1.212c-1.488,0.358-2.961,1.223-3.908,2.233
					c-0.856,0.912-1.913,2.151-1.845,3.366c0.08,1.356,1.372,2.574,2.988,2.686c1.857,0.128,3.475-0.968,4.669-2.029
					c1.064-0.942,1.798-2.141,2.037-3.42C31.315,109.623,31.233,109.093,30.949,108.668z"/>
				
					<linearGradient id="SVGID_00000049935200871281913280000013674801196867225229_" gradientUnits="userSpaceOnUse" x1="21.6465" y1="105.7259" x2="26.0279" y2="111.3316">
					<stop  offset="0" style="stop-color:#FFFFFF"/>
					<stop  offset="1" style="stop-color:#000000"/>
				</linearGradient>
				<path style="fill:url(#SVGID_00000049935200871281913280000013674801196867225229_);" d="M29.966,109.115
					c-0.607-0.91-1.985-1.301-3.128-1.024c-1.26,0.303-2.501,1.034-3.302,1.885c-0.723,0.771-1.615,1.818-1.559,2.844
					c0.069,1.144,1.16,2.172,2.526,2.268c1.569,0.109,2.933-0.817,3.945-1.713c0.896-0.798,1.517-1.807,1.719-2.887
					C30.273,109.923,30.204,109.476,29.966,109.115z"/>
				<path style="fill:#231F20;" d="M30.949,108.668c-0.721-1.076-2.35-1.539-3.701-1.212c-1.488,0.358-2.961,1.223-3.908,2.233
					c-0.856,0.912-1.913,2.151-1.845,3.366c0.08,1.356,1.372,2.574,2.988,2.686c1.857,0.128,3.475-0.968,4.669-2.029
					c1.064-0.942,1.798-2.141,2.037-3.42C31.315,109.623,31.233,109.093,30.949,108.668z"/>
				
					<linearGradient id="SVGID_00000006679440828421475020000016138249235959905202_" gradientUnits="userSpaceOnUse" x1="21.6465" y1="105.7259" x2="26.0279" y2="111.3316">
					<stop  offset="0" style="stop-color:#FFFFFF"/>
					<stop  offset="1" style="stop-color:#000000"/>
				</linearGradient>
				<path style="fill:url(#SVGID_00000006679440828421475020000016138249235959905202_);" d="M29.966,109.115
					c-0.607-0.91-1.985-1.301-3.128-1.024c-1.26,0.303-2.501,1.034-3.302,1.885c-0.723,0.771-1.615,1.818-1.559,2.844
					c0.069,1.144,1.16,2.172,2.526,2.268c1.569,0.109,2.933-0.817,3.945-1.713c0.896-0.798,1.517-1.807,1.719-2.887
					C30.273,109.923,30.204,109.476,29.966,109.115z"/>
				<path style="fill:#231F20;" d="M31.014,99.211c-0.059-3.496-0.246-6.998-0.387-10.495c0.009-0.066,0.014-0.133,0.019-0.197
					c-0.01-0.011-0.021-0.026-0.026-0.042c-0.006-0.062-0.006-0.12-0.012-0.178c0.012-0.11,0.017-0.221,0.024-0.33
					c-0.013-0.008-0.024-0.027-0.034-0.029c-0.006-0.038-0.043-0.046-0.078-0.035c-3.522-1.52-5.587-2.552-8.535-3.757
					c-2.513-1.023-4.559-2.039-8.367-3.468c-0.003-0.071-0.143-0.029-0.143,0.027c0,0.003,0,0.006,0,0.008
					c-0.005,0-0.005,0.003-0.011,0.003c0.006,0.059,0.006,0.114,0.007,0.174c-0.045,3.584-0.183,7.165-0.217,10.749
					c-0.019,1.749-0.019,3.493,0.018,5.241c0.043,1.959-0.173,3.996,0.128,5.937c0.06,0.397,0.759,0.154,0.776-0.152
					c0.225-3.566-0.08-7.146-0.142-10.712c-0.06-3.486-0.244-6.971-0.385-10.454c2.632,1.223,5.223,2.504,7.868,3.703
					c1.421,0.647,2.856,1.274,4.317,1.859c1.524,0.609,2.957,1.478,4.601,1.896c-0.057,3.313-0.17,6.626-0.205,9.941
					c-0.017,1.75-0.019,3.494,0.021,5.241c0.042,1.957-0.175,3.994,0.125,5.937c0.061,0.396,0.761,0.154,0.778-0.154
					C31.38,106.36,31.071,102.776,31.014,99.211z"/>
			</g>
		</g>
		<g>
			<g>
				<path style="fill:#231F20;" d="M231.387,50.357c-0.808-1.21-2.639-1.731-4.161-1.364c-1.674,0.407-3.329,1.377-4.394,2.513
					c-0.962,1.027-2.151,2.419-2.074,3.786c0.09,1.524,1.542,2.893,3.361,3.017c2.087,0.144,3.906-1.084,5.251-2.278
					c1.197-1.061,2.018-2.406,2.289-3.845C231.796,51.431,231.707,50.836,231.387,50.357z"/>
				
					<linearGradient id="SVGID_00000146500172465340173300000012718678429349691801_" gradientUnits="userSpaceOnUse" x1="220.9273" y1="47.0528" x2="225.8532" y2="53.3551">
					<stop  offset="0" style="stop-color:#FFFFFF"/>
					<stop  offset="1" style="stop-color:#000000"/>
				</linearGradient>
				<path style="fill:url(#SVGID_00000146500172465340173300000012718678429349691801_);" d="M230.281,50.863
					c-0.684-1.024-2.231-1.463-3.514-1.154c-1.416,0.343-2.812,1.165-3.717,2.122c-0.81,0.866-1.816,2.044-1.749,3.198
					c0.075,1.287,1.302,2.444,2.838,2.55c1.764,0.122,3.299-0.918,4.436-1.925c1.008-0.896,1.708-2.032,1.931-3.246
					C230.627,51.769,230.549,51.266,230.281,50.863z"/>
				<path style="fill:#231F20;" d="M231.387,50.357c-0.808-1.21-2.639-1.731-4.161-1.364c-1.674,0.407-3.329,1.377-4.394,2.513
					c-0.962,1.027-2.151,2.419-2.074,3.786c0.09,1.524,1.542,2.893,3.361,3.017c2.087,0.144,3.906-1.084,5.251-2.278
					c1.197-1.061,2.018-2.406,2.289-3.845C231.796,51.431,231.707,50.836,231.387,50.357z"/>
				
					<linearGradient id="SVGID_00000056427105301067945260000001522607812014519979_" gradientUnits="userSpaceOnUse" x1="220.9273" y1="47.0528" x2="225.8532" y2="53.3551">
					<stop  offset="0" style="stop-color:#FFFFFF"/>
					<stop  offset="1" style="stop-color:#000000"/>
				</linearGradient>
				<path style="fill:url(#SVGID_00000056427105301067945260000001522607812014519979_);" d="M230.281,50.863
					c-0.684-1.024-2.231-1.463-3.514-1.154c-1.416,0.343-2.812,1.165-3.717,2.122c-0.81,0.866-1.816,2.044-1.749,3.198
					c0.075,1.287,1.302,2.444,2.838,2.55c1.764,0.122,3.299-0.918,4.436-1.925c1.008-0.896,1.708-2.032,1.931-3.246
					C230.627,51.769,230.549,51.266,230.281,50.863z"/>
			</g>
			<g>
				<path style="fill:#231F20;" d="M250.214,58.299c-0.811-1.213-2.641-1.731-4.161-1.364c-1.677,0.404-3.331,1.377-4.398,2.513
					c-0.962,1.023-2.151,2.419-2.07,3.786c0.086,1.521,1.538,2.893,3.356,3.017c2.091,0.144,3.906-1.087,5.251-2.278
					c1.197-1.061,2.022-2.406,2.288-3.844C250.623,59.374,250.533,58.777,250.214,58.299z"/>
				
					<linearGradient id="SVGID_00000147187264181145465170000011908264110007379880_" gradientUnits="userSpaceOnUse" x1="239.7513" y1="54.9931" x2="244.6779" y2="61.2962">
					<stop  offset="0" style="stop-color:#FFFFFF"/>
					<stop  offset="1" style="stop-color:#000000"/>
				</linearGradient>
				<path style="fill:url(#SVGID_00000147187264181145465170000011908264110007379880_);" d="M249.105,58.804
					c-0.681-1.023-2.231-1.465-3.515-1.154c-1.413,0.343-2.813,1.162-3.712,2.122c-0.814,0.867-1.816,2.045-1.751,3.199
					c0.076,1.287,1.301,2.443,2.838,2.55c1.763,0.122,3.296-0.918,4.434-1.925c1.011-0.896,1.704-2.031,1.933-3.249
					C249.453,59.711,249.377,59.208,249.105,58.804z"/>
				<path style="fill:#231F20;" d="M250.214,58.299c-0.811-1.213-2.641-1.731-4.161-1.364c-1.677,0.404-3.331,1.377-4.398,2.513
					c-0.962,1.023-2.151,2.419-2.07,3.786c0.086,1.521,1.538,2.893,3.356,3.017c2.091,0.144,3.906-1.087,5.251-2.278
					c1.197-1.061,2.022-2.406,2.288-3.844C250.623,59.374,250.533,58.777,250.214,58.299z"/>
				
					<linearGradient id="SVGID_00000170237899132142840280000011554775786530125956_" gradientUnits="userSpaceOnUse" x1="239.7513" y1="54.9931" x2="244.6779" y2="61.2962">
					<stop  offset="0" style="stop-color:#FFFFFF"/>
					<stop  offset="1" style="stop-color:#000000"/>
				</linearGradient>
				<path style="fill:url(#SVGID_00000170237899132142840280000011554775786530125956_);" d="M249.105,58.804
					c-0.681-1.023-2.231-1.465-3.515-1.154c-1.413,0.343-2.813,1.162-3.712,2.122c-0.814,0.867-1.816,2.045-1.751,3.199
					c0.076,1.287,1.301,2.443,2.838,2.55c1.763,0.122,3.296-0.918,4.434-1.925c1.011-0.896,1.704-2.031,1.933-3.249
					C249.453,59.711,249.377,59.208,249.105,58.804z"/>
			</g>
			<g>
				<path style="fill:#231F20;" d="M269.134,55.382c-0.073-4.225-0.311-8.452-0.467-12.675c-0.003-0.048-0.056-0.048-0.101-0.029
					c0-0.006,0-0.014,0-0.019c-5.053-2.377-24.684-10.069-27.813-11.345c-3.184-1.3-6.463-2.457-9.712-3.659
					c0,0.008,0,0.019,0,0.027c-0.075-0.027-0.146-0.052-0.22-0.082c-0.056,3.924-0.199,7.849-0.24,11.776
					c-0.018,1.965-0.023,3.927,0.022,5.892c0.047,2.202-0.196,4.491,0.143,6.674c0.071,0.446,0.854,0.175,0.875-0.171
					c0.249-4.007-0.094-8.038-0.163-12.047c-0.064-3.792-0.152-7.514-0.279-11.29c2.804,1.176,12.074,4.808,13.579,5.409
					c0.488,0.196,2.363,0.962,4.882,1.989c-0.056,3.828-0.194,7.657-0.232,11.486c-0.022,1.965-0.024,3.927,0.018,5.892
					c0.048,2.202-0.195,4.488,0.144,6.673c0.07,0.447,0.854,0.173,0.876-0.172c0.251-4.007-0.094-8.035-0.161-12.044
					c-0.049-2.909-0.18-5.82-0.305-8.729c2.829,1.324,5.623,2.701,8.473,3.99c1.603,0.729,3.211,1.433,4.855,2.09
					c1.696,0.678,3.291,1.641,5.112,2.117c-0.062,2.63-0.138,5.262-0.164,7.897c-0.021,1.965-0.025,3.927,0.022,5.892
					c0.048,2.201-0.198,4.49,0.142,6.673c0.07,0.45,0.855,0.176,0.876-0.17C269.547,63.42,269.2,59.392,269.134,55.382z
					 M259.336,42.107c-3.074-1.254-6.238-2.377-9.373-3.533c-0.038-0.886-0.073-1.768-0.107-2.654
					c5.864,2.388,15.03,6.1,18.64,7.384c-0.013,0.833-0.025,1.664-0.045,2.496C265.555,44.351,262.368,43.343,259.336,42.107z"/>
				<path style="fill:#231F20;" d="M269.061,66.015c-0.807-1.213-2.639-1.73-4.16-1.364c-1.675,0.405-3.329,1.375-4.394,2.51
					c-0.965,1.026-2.154,2.423-2.071,3.787c0.084,1.523,1.538,2.892,3.358,3.02c2.087,0.144,3.906-1.088,5.249-2.282
					c1.198-1.06,2.019-2.406,2.29-3.842C269.471,67.089,269.381,66.494,269.061,66.015z"/>
				
					<linearGradient id="SVGID_00000003814494599020241300000006423411551492176777_" gradientUnits="userSpaceOnUse" x1="258.6022" y1="62.7093" x2="263.5276" y2="69.0108">
					<stop  offset="0" style="stop-color:#FFFFFF"/>
					<stop  offset="1" style="stop-color:#000000"/>
				</linearGradient>
				<path style="fill:url(#SVGID_00000003814494599020241300000006423411551492176777_);" d="M267.954,66.517
					c-0.682-1.023-2.229-1.462-3.513-1.151c-1.414,0.343-2.813,1.162-3.715,2.121c-0.811,0.864-1.815,2.042-1.749,3.197
					c0.073,1.287,1.302,2.443,2.836,2.552c1.766,0.12,3.301-0.92,4.435-1.928c1.01-0.896,1.704-2.031,1.935-3.246
					C268.302,67.424,268.224,66.924,267.954,66.517z"/>
				<path style="fill:#231F20;" d="M269.061,66.015c-0.807-1.213-2.639-1.73-4.16-1.364c-1.675,0.405-3.329,1.375-4.394,2.51
					c-0.965,1.026-2.154,2.423-2.071,3.787c0.084,1.523,1.538,2.892,3.358,3.02c2.087,0.144,3.906-1.088,5.249-2.282
					c1.198-1.06,2.019-2.406,2.29-3.842C269.471,67.089,269.381,66.494,269.061,66.015z"/>
				
					<linearGradient id="SVGID_00000175310995782273155330000009743258074089891217_" gradientUnits="userSpaceOnUse" x1="258.6022" y1="62.7093" x2="263.5276" y2="69.0108">
					<stop  offset="0" style="stop-color:#FFFFFF"/>
					<stop  offset="1" style="stop-color:#000000"/>
				</linearGradient>
				<path style="fill:url(#SVGID_00000175310995782273155330000009743258074089891217_);" d="M267.954,66.517
					c-0.682-1.023-2.229-1.462-3.513-1.151c-1.414,0.343-2.813,1.162-3.715,2.121c-0.811,0.864-1.815,2.042-1.749,3.197
					c0.073,1.287,1.302,2.443,2.836,2.552c1.766,0.12,3.301-0.92,4.435-1.928c1.01-0.896,1.704-2.031,1.935-3.246
					C268.302,67.424,268.224,66.924,267.954,66.517z"/>
			</g>
		</g>
		<g>
			<g>
				<path style="fill:#231F20;" d="M81.652,36.3c-0.664-0.992-2.159-1.415-3.403-1.114c-1.372,0.33-2.723,1.125-3.594,2.053
					c-0.788,0.838-1.761,1.978-1.696,3.095c0.073,1.247,1.259,2.366,2.749,2.47c1.707,0.117,3.194-0.888,4.291-1.864
					c0.978-0.866,1.654-1.967,1.871-3.145C81.987,37.178,81.911,36.691,81.652,36.3z"/>
				
					<linearGradient id="SVGID_00000089573108705941890140000017051418625768952451_" gradientUnits="userSpaceOnUse" x1="73.0949" y1="33.5966" x2="77.1239" y2="38.7514">
					<stop  offset="0" style="stop-color:#FFFFFF"/>
					<stop  offset="1" style="stop-color:#000000"/>
				</linearGradient>
				<path style="fill:url(#SVGID_00000089573108705941890140000017051418625768952451_);" d="M80.744,36.713
					c-0.56-0.838-1.823-1.197-2.874-0.941c-1.157,0.279-2.3,0.949-3.037,1.733c-0.665,0.71-1.483,1.672-1.431,2.616
					c0.059,1.05,1.064,1.996,2.32,2.084c1.442,0.098,2.7-0.752,3.628-1.574c0.824-0.735,1.397-1.662,1.58-2.657
					C81.028,37.454,80.965,37.042,80.744,36.713z"/>
				<path style="fill:#231F20;" d="M81.652,36.3c-0.664-0.992-2.159-1.415-3.403-1.114c-1.372,0.33-2.723,1.125-3.594,2.053
					c-0.788,0.838-1.761,1.978-1.696,3.095c0.073,1.247,1.259,2.366,2.749,2.47c1.707,0.117,3.194-0.888,4.291-1.864
					c0.978-0.866,1.654-1.967,1.871-3.145C81.987,37.178,81.911,36.691,81.652,36.3z"/>
				
					<linearGradient id="SVGID_00000052810153741063376290000013427068058013885834_" gradientUnits="userSpaceOnUse" x1="73.0949" y1="33.5966" x2="77.1239" y2="38.7514">
					<stop  offset="0" style="stop-color:#FFFFFF"/>
					<stop  offset="1" style="stop-color:#000000"/>
				</linearGradient>
				<path style="fill:url(#SVGID_00000052810153741063376290000013427068058013885834_);" d="M80.744,36.713
					c-0.56-0.838-1.823-1.197-2.874-0.941c-1.157,0.279-2.3,0.949-3.037,1.733c-0.665,0.71-1.483,1.672-1.431,2.616
					c0.059,1.05,1.064,1.996,2.32,2.084c1.442,0.098,2.7-0.752,3.628-1.574c0.824-0.735,1.397-1.662,1.58-2.657
					C81.028,37.454,80.965,37.042,80.744,36.713z"/>
			</g>
			<g>
				<path style="fill:#231F20;" d="M97.045,42.793c-0.664-0.989-2.158-1.414-3.403-1.114c-1.373,0.333-2.722,1.125-3.595,2.055
					c-0.786,0.838-1.759,1.978-1.695,3.095c0.071,1.244,1.259,2.366,2.747,2.467c1.708,0.12,3.194-0.888,4.293-1.864
					c0.978-0.866,1.653-1.965,1.871-3.142C97.38,43.673,97.306,43.186,97.045,42.793z"/>
				
					<linearGradient id="SVGID_00000113354415012050762650000009115253239604215203_" gradientUnits="userSpaceOnUse" x1="88.4916" y1="40.093" x2="92.5185" y2="45.2451">
					<stop  offset="0" style="stop-color:#FFFFFF"/>
					<stop  offset="1" style="stop-color:#000000"/>
				</linearGradient>
				<path style="fill:url(#SVGID_00000113354415012050762650000009115253239604215203_);" d="M96.139,43.205
					c-0.558-0.837-1.824-1.194-2.874-0.941c-1.156,0.279-2.299,0.951-3.036,1.736c-0.664,0.707-1.484,1.67-1.432,2.613
					c0.059,1.053,1.064,1.997,2.32,2.085c1.444,0.101,2.699-0.75,3.627-1.574c0.826-0.731,1.396-1.662,1.579-2.657
					C96.423,43.95,96.36,43.537,96.139,43.205z"/>
				<path style="fill:#231F20;" d="M97.045,42.793c-0.664-0.989-2.158-1.414-3.403-1.114c-1.373,0.333-2.722,1.125-3.595,2.055
					c-0.786,0.838-1.759,1.978-1.695,3.095c0.071,1.244,1.259,2.366,2.747,2.467c1.708,0.12,3.194-0.888,4.293-1.864
					c0.978-0.866,1.653-1.965,1.871-3.142C97.38,43.673,97.306,43.186,97.045,42.793z"/>
				
					<linearGradient id="SVGID_00000060719406596066844940000017872358667879054485_" gradientUnits="userSpaceOnUse" x1="88.4916" y1="40.093" x2="92.5185" y2="45.2451">
					<stop  offset="0" style="stop-color:#FFFFFF"/>
					<stop  offset="1" style="stop-color:#000000"/>
				</linearGradient>
				<path style="fill:url(#SVGID_00000060719406596066844940000017872358667879054485_);" d="M96.139,43.205
					c-0.558-0.837-1.824-1.194-2.874-0.941c-1.156,0.279-2.299,0.951-3.036,1.736c-0.664,0.707-1.484,1.67-1.432,2.613
					c0.059,1.053,1.064,1.997,2.32,2.085c1.444,0.101,2.699-0.75,3.627-1.574c0.826-0.731,1.396-1.662,1.579-2.657
					C96.423,43.95,96.36,43.537,96.139,43.205z"/>
			</g>
			<g>
				<path style="fill:#231F20;" d="M112.517,40.408c-0.058-3.454-0.256-6.913-0.386-10.364c0-0.04-0.043-0.04-0.079-0.024
					c0-0.005,0-0.011,0-0.016c-4.132-1.941-20.186-8.232-22.744-9.276c-2.606-1.064-5.286-2.007-7.943-2.992
					c0,0.008,0,0.014,0,0.022c-0.06-0.022-0.119-0.043-0.177-0.066c-0.049,3.208-0.165,6.418-0.197,9.627
					c-0.017,1.608-0.02,3.212,0.015,4.818c0.037,1.803-0.159,3.675,0.117,5.459c0.059,0.367,0.699,0.144,0.718-0.138
					c0.201-3.278-0.077-6.573-0.134-9.851c-0.053-3.1-0.125-6.144-0.23-9.231c2.294,0.959,9.874,3.93,11.103,4.422
					c0.401,0.16,1.936,0.787,3.995,1.627c-0.047,3.13-0.159,6.259-0.191,9.391c-0.015,1.606-0.02,3.213,0.017,4.818
					c0.04,1.8-0.16,3.671,0.116,5.458c0.059,0.365,0.7,0.141,0.716-0.14c0.205-3.276-0.077-6.57-0.13-9.851
					c-0.043-2.377-0.149-4.759-0.251-7.138c2.314,1.085,4.601,2.21,6.93,3.268c1.311,0.593,2.627,1.169,3.972,1.707
					c1.385,0.555,2.687,1.34,4.177,1.728c-0.051,2.153-0.112,4.304-0.132,6.458c-0.019,1.609-0.019,3.212,0.018,4.821
					c0.037,1.799-0.159,3.672,0.117,5.455c0.054,0.367,0.697,0.144,0.714-0.139C112.855,46.981,112.573,43.686,112.517,40.408z
					 M104.507,29.552c-2.516-1.024-5.102-1.941-7.668-2.89c-0.029-0.723-0.058-1.444-0.087-2.167
					c4.796,1.951,12.291,4.985,15.242,6.035c-0.007,0.68-0.02,1.361-0.034,2.042C109.59,31.387,106.981,30.565,104.507,29.552z"/>
				<path style="fill:#231F20;" d="M112.459,49.105c-0.663-0.992-2.16-1.417-3.401-1.117c-1.373,0.332-2.726,1.125-3.598,2.052
					c-0.789,0.841-1.757,1.981-1.694,3.098c0.069,1.244,1.261,2.364,2.748,2.468c1.707,0.119,3.192-0.888,4.293-1.864
					c0.979-0.867,1.652-1.968,1.872-3.143C112.793,49.982,112.719,49.496,112.459,49.105z"/>
				
					<linearGradient id="SVGID_00000127044106212696492290000000877968185967586987_" gradientUnits="userSpaceOnUse" x1="103.9048" y1="46.4" x2="107.933" y2="51.5537">
					<stop  offset="0" style="stop-color:#FFFFFF"/>
					<stop  offset="1" style="stop-color:#000000"/>
				</linearGradient>
				<path style="fill:url(#SVGID_00000127044106212696492290000000877968185967586987_);" d="M111.552,49.514
					c-0.559-0.834-1.824-1.194-2.871-0.941c-1.159,0.279-2.303,0.951-3.037,1.733c-0.667,0.71-1.489,1.672-1.43,2.616
					c0.058,1.05,1.064,1.996,2.319,2.084c1.442,0.099,2.699-0.75,3.627-1.574c0.824-0.734,1.393-1.661,1.58-2.656
					C111.835,50.256,111.776,49.847,111.552,49.514z"/>
				<path style="fill:#231F20;" d="M112.459,49.105c-0.663-0.992-2.16-1.417-3.401-1.117c-1.373,0.332-2.726,1.125-3.598,2.052
					c-0.789,0.841-1.757,1.981-1.694,3.098c0.069,1.244,1.261,2.364,2.748,2.468c1.707,0.119,3.192-0.888,4.293-1.864
					c0.979-0.867,1.652-1.968,1.872-3.143C112.793,49.982,112.719,49.496,112.459,49.105z"/>
				
					<linearGradient id="SVGID_00000080168077460260464680000008353906931360484481_" gradientUnits="userSpaceOnUse" x1="103.9048" y1="46.4" x2="107.933" y2="51.5537">
					<stop  offset="0" style="stop-color:#FFFFFF"/>
					<stop  offset="1" style="stop-color:#000000"/>
				</linearGradient>
				<path style="fill:url(#SVGID_00000080168077460260464680000008353906931360484481_);" d="M111.552,49.514
					c-0.559-0.834-1.824-1.194-2.871-0.941c-1.159,0.279-2.303,0.951-3.037,1.733c-0.667,0.71-1.489,1.672-1.43,2.616
					c0.058,1.05,1.064,1.996,2.319,2.084c1.442,0.099,2.699-0.75,3.627-1.574c0.824-0.734,1.393-1.661,1.58-2.656
					C111.835,50.256,111.776,49.847,111.552,49.514z"/>
			</g>
		</g>
		<g>
			<g>
				<path style="fill:#231F20;" d="M46.111,54.757c-0.67-1.002-2.183-1.433-3.44-1.13c-1.385,0.338-2.754,1.14-3.637,2.079
					c-0.795,0.848-1.776,1.999-1.712,3.129c0.073,1.26,1.276,2.394,2.778,2.496c1.725,0.12,3.231-0.898,4.341-1.882
					c0.99-0.88,1.669-1.992,1.893-3.182C46.451,55.645,46.378,55.153,46.111,54.757z"/>
				
					<linearGradient id="SVGID_00000054947860728234738820000012219431245426749852_" gradientUnits="userSpaceOnUse" x1="37.4618" y1="52.0235" x2="41.5352" y2="57.235">
					<stop  offset="0" style="stop-color:#FFFFFF"/>
					<stop  offset="1" style="stop-color:#000000"/>
				</linearGradient>
				<path style="fill:url(#SVGID_00000054947860728234738820000012219431245426749852_);" d="M45.197,55.171
					c-0.564-0.845-1.847-1.206-2.907-0.951c-1.169,0.284-2.326,0.962-3.07,1.754c-0.674,0.716-1.506,1.692-1.446,2.646
					c0.058,1.063,1.073,2.021,2.344,2.106c1.456,0.104,2.727-0.758,3.669-1.59c0.834-0.742,1.41-1.681,1.598-2.686
					C45.484,55.922,45.419,55.507,45.197,55.171z"/>
				<path style="fill:#231F20;" d="M46.111,54.757c-0.67-1.002-2.183-1.433-3.44-1.13c-1.385,0.338-2.754,1.14-3.637,2.079
					c-0.795,0.848-1.776,1.999-1.712,3.129c0.073,1.26,1.276,2.394,2.778,2.496c1.725,0.12,3.231-0.898,4.341-1.882
					c0.99-0.88,1.669-1.992,1.893-3.182C46.451,55.645,46.378,55.153,46.111,54.757z"/>
				
					<linearGradient id="SVGID_00000018215771926535534420000008979703963306287500_" gradientUnits="userSpaceOnUse" x1="37.4618" y1="52.0235" x2="41.5352" y2="57.235">
					<stop  offset="0" style="stop-color:#FFFFFF"/>
					<stop  offset="1" style="stop-color:#000000"/>
				</linearGradient>
				<path style="fill:url(#SVGID_00000018215771926535534420000008979703963306287500_);" d="M45.197,55.171
					c-0.564-0.845-1.847-1.206-2.907-0.951c-1.169,0.284-2.326,0.962-3.07,1.754c-0.674,0.716-1.506,1.692-1.446,2.646
					c0.058,1.063,1.073,2.021,2.344,2.106c1.456,0.104,2.727-0.758,3.669-1.59c0.834-0.742,1.41-1.681,1.598-2.686
					C45.484,55.922,45.419,55.507,45.197,55.171z"/>
				<path style="fill:#231F20;" d="M45.797,35.821c-0.048-0.061-0.1-0.115-0.148-0.175c-0.044,3.341-0.171,6.684-0.203,10.028
					c-0.016,1.625-0.021,3.247,0.016,4.872c0.039,1.82-0.163,3.714,0.117,5.519c0.058,0.37,0.707,0.146,0.725-0.141
					c0.208-3.313-0.077-6.644-0.135-9.963C46.113,42.582,45.931,39.198,45.797,35.821z"/>
			</g>
			<path style="fill:#231F20;" d="M54.369,42.875c0.037-0.526,0.037-1.048,0.017-1.569c-0.059-0.435-0.171-0.859-0.373-1.249
				c-0.189-0.295-0.43-0.564-0.745-0.782c-1.153-0.814-2.692-1.034-4.104-1.545c-1.393-0.505-2.612-1.135-3.441-2.005
				c0.057,0.487-0.026,0.979,0.027,1.465c0.037,0.348-0.074,0.817,0.03,1.192c-0.059-0.003-0.114,0.048-0.099,0.087
				c0.442,0.947,1.336,0.888,2.644,0.929c1.052,0.031,2.025,0.169,2.975,0.491c0.801,0.271,1.581,0.651,2.119,1.231
				c0.665,0.723,0.558,1.598,0.531,2.451c-0.181-0.276-0.388-0.532-0.681-0.736c-1.153-0.811-2.692-1.034-4.104-1.545
				c-1.393-0.505-2.612-1.135-3.441-2.004c0.057,0.486-0.026,0.978,0.027,1.465c0.037,0.348-0.074,0.816,0.03,1.191
				c-0.059-0.003-0.114,0.047-0.099,0.088c0.442,0.947,1.336,0.89,2.644,0.928c1.052,0.032,2.025,0.173,2.975,0.492
				c1.371,0.465,2.007,1.106,2.714,2.13C54.103,44.675,54.302,43.787,54.369,42.875z"/>
			
				<linearGradient id="SVGID_00000013184451620653240360000002515414813240825786_" gradientUnits="userSpaceOnUse" x1="50.8639" y1="37.4075" x2="48.655" y2="42.0905">
				<stop  offset="0" style="stop-color:#FFFFFF"/>
				<stop  offset="1" style="stop-color:#000000"/>
			</linearGradient>
			<path style="fill:url(#SVGID_00000013184451620653240360000002515414813240825786_);" d="M46.217,40.112
				c-0.063-0.061,0,2.034,0,2.034s0.299,0.452,1.226,0.47c0.922,0.022,2.667,0.096,3.401,0.396c0.734,0.304,1.276-0.337,0.351-0.715
				C50.272,41.92,48.015,41.771,46.217,40.112z"/>
			
				<linearGradient id="SVGID_00000134214092331007180000000007823451021640956560_" gradientUnits="userSpaceOnUse" x1="50.7066" y1="34.181" x2="48.4971" y2="38.8652">
				<stop  offset="0" style="stop-color:#FFFFFF"/>
				<stop  offset="1" style="stop-color:#000000"/>
			</linearGradient>
			<path style="fill:url(#SVGID_00000134214092331007180000000007823451021640956560_);" d="M46.217,36.552
				c-0.063-0.061,0,2.034,0,2.034s0.299,0.453,1.226,0.471c0.922,0.021,2.667,0.095,3.401,0.396
				c0.734,0.303,1.276-0.338,0.351-0.716C50.272,38.36,48.015,38.212,46.217,36.552z"/>
		</g>
		<g>
			<g>
				<path style="fill:#231F20;" d="M287.053,104.631c-0.772-1.154-2.519-1.651-3.962-1.301c-1.599,0.386-3.175,1.312-4.191,2.393
					c-0.917,0.976-2.048,2.305-1.973,3.605c0.087,1.451,1.468,2.757,3.199,2.877c1.989,0.139,3.721-1.034,5.003-2.172
					c1.139-1.01,1.924-2.293,2.178-3.661C287.441,105.655,287.359,105.088,287.053,104.631z"/>
				
					<linearGradient id="SVGID_00000109014870705992328910000012336103538535675571_" gradientUnits="userSpaceOnUse" x1="277.088" y1="101.4817" x2="281.7805" y2="107.4854">
					<stop  offset="0" style="stop-color:#FFFFFF"/>
					<stop  offset="1" style="stop-color:#000000"/>
				</linearGradient>
				<path style="fill:url(#SVGID_00000109014870705992328910000012336103538535675571_);" d="M285.997,105.109
					c-0.649-0.975-2.122-1.393-3.347-1.098c-1.348,0.327-2.678,1.109-3.539,2.023c-0.771,0.824-1.728,1.946-1.665,3.044
					c0.069,1.226,1.24,2.329,2.701,2.43c1.684,0.115,3.144-0.874,4.229-1.834c0.959-0.853,1.625-1.935,1.839-3.092
					C286.327,105.973,286.255,105.495,285.997,105.109z"/>
				<path style="fill:#231F20;" d="M287.053,104.631c-0.772-1.154-2.519-1.651-3.962-1.301c-1.599,0.386-3.175,1.312-4.191,2.393
					c-0.917,0.976-2.048,2.305-1.973,3.605c0.087,1.451,1.468,2.757,3.199,2.877c1.989,0.139,3.721-1.034,5.003-2.172
					c1.139-1.01,1.924-2.293,2.178-3.661C287.441,105.655,287.359,105.088,287.053,104.631z"/>
				
					<linearGradient id="SVGID_00000049186885895216824510000007558202579100430500_" gradientUnits="userSpaceOnUse" x1="277.088" y1="101.4817" x2="281.7805" y2="107.4854">
					<stop  offset="0" style="stop-color:#FFFFFF"/>
					<stop  offset="1" style="stop-color:#000000"/>
				</linearGradient>
				<path style="fill:url(#SVGID_00000049186885895216824510000007558202579100430500_);" d="M285.997,105.109
					c-0.649-0.975-2.122-1.393-3.347-1.098c-1.348,0.327-2.678,1.109-3.539,2.023c-0.771,0.824-1.728,1.946-1.665,3.044
					c0.069,1.226,1.24,2.329,2.701,2.43c1.684,0.115,3.144-0.874,4.229-1.834c0.959-0.853,1.625-1.935,1.839-3.092
					C286.327,105.973,286.255,105.495,285.997,105.109z"/>
				<path style="fill:#231F20;" d="M286.688,82.818c-0.056-0.067-0.117-0.13-0.171-0.202c-0.048,3.852-0.193,7.7-0.234,11.553
					c-0.018,1.872-0.02,3.741,0.02,5.613c0.047,2.098-0.184,4.277,0.138,6.357c0.065,0.426,0.814,0.167,0.834-0.162
					c0.238-3.818-0.087-7.655-0.157-11.476C287.055,90.608,286.839,86.711,286.688,82.818z"/>
			</g>
			<path style="fill:#231F20;" d="M296.56,90.946c0.042-0.606,0.048-1.207,0.022-1.808c-0.07-0.503-0.198-0.992-0.43-1.439
				c-0.217-0.34-0.496-0.651-0.855-0.904c-1.335-0.933-3.106-1.189-4.731-1.777c-1.603-0.582-3.007-1.311-3.961-2.31
				c0.064,0.562-0.03,1.125,0.029,1.689c0.042,0.399-0.086,0.939,0.035,1.372c-0.069-0.003-0.136,0.053-0.116,0.101
				c0.512,1.09,1.537,1.024,3.047,1.069c1.207,0.035,2.332,0.196,3.425,0.566c0.923,0.314,1.824,0.749,2.438,1.417
				c0.769,0.835,0.648,1.84,0.617,2.827c-0.207-0.322-0.45-0.614-0.784-0.851c-1.335-0.936-3.106-1.191-4.731-1.779
				c-1.603-0.579-3.007-1.308-3.961-2.311c0.064,0.561-0.03,1.128,0.029,1.691c0.042,0.399-0.086,0.938,0.035,1.37
				c-0.069-0.003-0.136,0.055-0.116,0.101c0.512,1.09,1.537,1.024,3.047,1.068c1.207,0.038,2.332,0.197,3.425,0.566
				c1.579,0.538,2.31,1.277,3.124,2.455C296.257,93.017,296.488,91.994,296.56,90.946z"/>
			
				<linearGradient id="SVGID_00000027586938362760194530000014977400355558516151_" gradientUnits="userSpaceOnUse" x1="292.5256" y1="84.6484" x2="289.9815" y2="90.0421">
				<stop  offset="0" style="stop-color:#FFFFFF"/>
				<stop  offset="1" style="stop-color:#000000"/>
			</linearGradient>
			<path style="fill:url(#SVGID_00000027586938362760194530000014977400355558516151_);" d="M287.174,87.763
				c-0.074-0.069,0,2.343,0,2.343s0.345,0.521,1.409,0.542c1.065,0.024,3.071,0.109,3.917,0.457
				c0.848,0.346,1.473-0.391,0.406-0.824C291.844,89.845,289.243,89.673,287.174,87.763z"/>
			
				<linearGradient id="SVGID_00000028316006526840635860000017907430147930210742_" gradientUnits="userSpaceOnUse" x1="292.3457" y1="80.9285" x2="289.7993" y2="86.3268">
				<stop  offset="0" style="stop-color:#FFFFFF"/>
				<stop  offset="1" style="stop-color:#000000"/>
			</linearGradient>
			<path style="fill:url(#SVGID_00000028316006526840635860000017907430147930210742_);" d="M287.174,83.661
				c-0.074-0.07,0,2.345,0,2.345s0.345,0.521,1.409,0.542c1.065,0.021,3.071,0.106,3.917,0.454c0.848,0.348,1.473-0.388,0.406-0.824
				C291.844,85.745,289.243,85.572,287.174,83.661z"/>
		</g>
		<g>
			<path style="fill:#231F20;" d="M174.561,40.772c-0.785-1.175-2.561-1.68-4.036-1.324c-1.622,0.393-3.227,1.335-4.262,2.435
				c-0.934,0.994-2.089,2.347-2.007,3.672c0.085,1.476,1.49,2.805,3.254,2.927c2.026,0.138,3.791-1.053,5.094-2.21
				c1.159-1.029,1.957-2.334,2.217-3.73C174.96,41.815,174.869,41.235,174.561,40.772z M172.8,43.883
				c-1.143,1.571-4.047,3.669-6.222,2.063c-0.547-0.404-0.707-0.995-0.594-1.582c0.399-2.031,3.46-5.073,6.255-4.046
				C173.962,40.953,173.805,42.498,172.8,43.883z"/>
			<path style="fill:#231F20;" d="M174.63,30.461c-0.07-4.094-0.303-8.197-0.455-12.289c-0.003-0.078-0.154-0.033-0.157,0.029
				c-0.047,3.975-0.2,7.945-0.24,11.92c-0.021,1.906-0.021,3.81,0.022,5.713c0.045,2.135-0.192,4.356,0.139,6.472
				c0.067,0.433,0.829,0.17,0.847-0.165C175.028,38.254,174.696,34.349,174.63,30.461z"/>
		</g>
		<g>
			<path style="fill:#231F20;" d="M208.686,26.62c-0.781-1.175-2.56-1.678-4.033-1.322c-1.624,0.393-3.231,1.334-4.264,2.435
				c-0.934,0.995-2.086,2.348-2.009,3.669c0.083,1.478,1.492,2.808,3.258,2.93c2.023,0.138,3.786-1.056,5.092-2.212
				c1.155-1.026,1.956-2.332,2.216-3.727C209.085,27.662,208.997,27.085,208.686,26.62z M206.925,29.73
				c-1.142,1.574-4.046,3.67-6.217,2.066c-0.548-0.407-0.711-0.997-0.595-1.582c0.397-2.031,3.461-5.073,6.253-4.047
				C208.088,26.801,207.931,28.345,206.925,29.73z"/>
			<path style="fill:#231F20;" d="M208.755,16.309c-0.07-4.094-0.301-8.194-0.455-12.289c0-0.077-0.154-0.029-0.154,0.032
				c-0.05,3.974-0.202,7.944-0.241,11.919c-0.02,1.907-0.023,3.808,0.02,5.714c0.049,2.135-0.187,4.355,0.139,6.471
				c0.067,0.434,0.826,0.17,0.848-0.165C209.155,24.104,208.821,20.198,208.755,16.309z"/>
		</g>
		<g>
			<path style="fill:#231F20;" d="M146.766,30.77c0.734,1.098,2.393,1.568,3.77,1.236c1.521-0.37,3.02-1.247,3.986-2.279
				c0.875-0.928,1.948-2.193,1.879-3.43c-0.08-1.383-1.398-2.621-3.046-2.736c-1.892-0.133-3.542,0.984-4.76,2.063
				c-1.084,0.963-1.828,2.183-2.073,3.486C146.393,29.794,146.472,30.334,146.766,30.77z M148.408,27.861
				c1.07-1.47,3.783-3.43,5.818-1.93c0.512,0.38,0.662,0.93,0.553,1.478c-0.373,1.901-3.233,4.743-5.843,3.784
				C147.323,30.6,147.467,29.156,148.408,27.861z"/>
			<path style="fill:#231F20;" d="M146.699,40.408c0.067,3.829,0.283,7.663,0.423,11.489c0.005,0.074,0.149,0.032,0.149-0.027
				c0.042-3.717,0.186-7.428,0.223-11.146c0.021-1.781,0.021-3.56-0.016-5.341c-0.048-1.995,0.176-4.07-0.132-6.049
				c-0.064-0.407-0.771-0.16-0.793,0.154C146.325,33.123,146.637,36.773,146.699,40.408z"/>
		</g>
		<g>
			<path style="fill:#231F20;" d="M68.34,75.775c-1-1.5-3.266-2.14-5.143-1.688c-2.073,0.502-4.118,1.702-5.434,3.106
				c-1.191,1.268-2.659,2.991-2.564,4.679c0.109,1.882,1.903,3.576,4.154,3.73c2.578,0.181,4.827-1.34,6.493-2.816
				c1.475-1.311,2.494-2.973,2.829-4.754C68.848,77.101,68.733,76.365,68.34,75.775z"/>
			
				<linearGradient id="SVGID_00000055704881587807017210000005099852688250646427_" gradientUnits="userSpaceOnUse" x1="55.409" y1="71.6867" x2="61.4977" y2="79.4767">
				<stop  offset="0" style="stop-color:#FFFFFF"/>
				<stop  offset="1" style="stop-color:#000000"/>
			</linearGradient>
			<path style="fill:url(#SVGID_00000055704881587807017210000005099852688250646427_);" d="M66.973,76.397
				c-0.846-1.266-2.759-1.809-4.344-1.425c-1.753,0.423-3.477,1.436-4.593,2.621c-1.007,1.072-2.245,2.529-2.161,3.954
				c0.09,1.59,1.605,3.02,3.505,3.151c2.18,0.152,4.078-1.132,5.481-2.38c1.249-1.106,2.112-2.51,2.39-4.012
				C67.398,77.519,67.305,76.897,66.973,76.397z"/>
			<path style="fill:#231F20;" d="M68.34,75.775c-1-1.5-3.266-2.14-5.143-1.688c-2.073,0.502-4.118,1.702-5.434,3.106
				c-1.191,1.268-2.659,2.991-2.564,4.679c0.109,1.882,1.903,3.576,4.154,3.73c2.578,0.181,4.827-1.34,6.493-2.816
				c1.475-1.311,2.494-2.973,2.829-4.754C68.848,77.101,68.733,76.365,68.34,75.775z"/>
			
				<linearGradient id="SVGID_00000166636299328451197810000015374284659214863545_" gradientUnits="userSpaceOnUse" x1="55.409" y1="71.6867" x2="61.4977" y2="79.4767">
				<stop  offset="0" style="stop-color:#FFFFFF"/>
				<stop  offset="1" style="stop-color:#000000"/>
			</linearGradient>
			<path style="fill:url(#SVGID_00000166636299328451197810000015374284659214863545_);" d="M66.973,76.397
				c-0.846-1.266-2.759-1.809-4.344-1.425c-1.753,0.423-3.477,1.436-4.593,2.621c-1.007,1.072-2.245,2.529-2.161,3.954
				c0.09,1.59,1.605,3.02,3.505,3.151c2.18,0.152,4.078-1.132,5.481-2.38c1.249-1.106,2.112-2.51,2.39-4.012
				C67.398,77.519,67.305,76.897,66.973,76.397z"/>
			<path style="fill:#231F20;" d="M68.428,62.63C68.34,57.408,68.04,52.18,67.85,46.961c-0.005-0.099-0.198-0.04-0.201,0.04
				c-0.06,5.068-0.257,10.128-0.304,15.195c-0.027,2.43-0.032,4.855,0.023,7.286c0.062,2.719-0.242,5.551,0.179,8.25
				c0.085,0.553,1.053,0.216,1.08-0.213C68.94,72.565,68.512,67.586,68.428,62.63z"/>
		</g>
		<g>
			<path style="fill:#231F20;" d="M124.719,17.63c0.835,1.255,2.731,1.789,4.302,1.412c1.733-0.42,3.445-1.422,4.546-2.601
				c0.999-1.061,2.228-2.501,2.144-3.914c-0.087-1.576-1.592-2.993-3.473-3.123c-2.159-0.15-4.042,1.125-5.432,2.358
				c-1.236,1.096-2.087,2.489-2.368,3.978C124.293,16.518,124.386,17.135,124.719,17.63z"/>
			
				<linearGradient id="SVGID_00000012443002004908939150000008120554989660723613_" gradientUnits="userSpaceOnUse" x1="1231.9587" y1="916.9507" x2="1237.0537" y2="923.4694" gradientTransform="matrix(-1 0 0 -1 1367.4961 938)">
				<stop  offset="0" style="stop-color:#FFFFFF"/>
				<stop  offset="1" style="stop-color:#000000"/>
			</linearGradient>
			<path style="fill:url(#SVGID_00000012443002004908939150000008120554989660723613_);" d="M125.861,17.108
				c0.708,1.059,2.308,1.513,3.638,1.194c1.462-0.356,2.908-1.204,3.839-2.196c0.842-0.896,1.88-2.114,1.81-3.308
				c-0.077-1.332-1.345-2.528-2.933-2.637c-1.827-0.128-3.413,0.949-4.589,1.992c-1.044,0.925-1.766,2.1-2,3.358
				C125.505,16.17,125.583,16.692,125.861,17.108z"/>
			<path style="fill:#231F20;" d="M124.719,17.63c0.835,1.255,2.731,1.789,4.302,1.412c1.733-0.42,3.445-1.422,4.546-2.601
				c0.999-1.061,2.228-2.501,2.144-3.914c-0.087-1.576-1.592-2.993-3.473-3.123c-2.159-0.15-4.042,1.125-5.432,2.358
				c-1.236,1.096-2.087,2.489-2.368,3.978C124.293,16.518,124.386,17.135,124.719,17.63z"/>
			
				<linearGradient id="SVGID_00000126281594695652765540000009185945506875765902_" gradientUnits="userSpaceOnUse" x1="1231.9587" y1="916.9507" x2="1237.0537" y2="923.4694" gradientTransform="matrix(-1 0 0 -1 1367.4961 938)">
				<stop  offset="0" style="stop-color:#FFFFFF"/>
				<stop  offset="1" style="stop-color:#000000"/>
			</linearGradient>
			<path style="fill:url(#SVGID_00000126281594695652765540000009185945506875765902_);" d="M125.861,17.108
				c0.708,1.059,2.308,1.513,3.638,1.194c1.462-0.356,2.908-1.204,3.839-2.196c0.842-0.896,1.88-2.114,1.81-3.308
				c-0.077-1.332-1.345-2.528-2.933-2.637c-1.827-0.128-3.413,0.949-4.589,1.992c-1.044,0.925-1.766,2.1-2,3.358
				C125.505,16.17,125.583,16.692,125.861,17.108z"/>
			<path style="fill:#231F20;" d="M124.644,28.629c0.075,4.369,0.319,8.743,0.484,13.111c0.003,0.082,0.164,0.034,0.164-0.032
				c0.054-4.241,0.215-8.476,0.257-12.717c0.022-2.031,0.024-4.063-0.021-6.094c-0.05-2.279,0.202-4.647-0.146-6.906
				c-0.075-0.462-0.884-0.18-0.906,0.176C124.216,20.313,124.572,24.482,124.644,28.629z"/>
		</g>
		<g>
			<g>
				<path style="fill:#231F20;" d="M51.475,116.945c2.385-1.181,4.56-2.547,6.612-4.047c0.621-0.372,1.234-0.744,1.835-1.128
					c2.456-1.574,5.748-3.666,6.933-6.163c1.251-2.637-0.121-4.802-3.28-5.464c-3.293-0.691-5.972,0.17-8.582,1.845
					c-1.707,1.093-3.026,2.669-4.031,4.424c-1.521,2.662-2.085,5.602-2.165,8.57c-0.095,0.821-0.169,1.645-0.217,2.47
					c-0.693,0.452-1.384,0.91-2.069,1.367c-7.071,3.645-14.061,8.143-18.729,13.953c-3.574,4.451-6.631,10.481-5.376,15.937
					c1.615,7.014,9.183,11.239,17.339,11.725c2.101,0.125,4.447,0.109,6.52-0.24c0.851-0.144,8.146-1.968,8.008-2.632
					c0.325,1.542,0.634,3.087,0.912,4.634c1.601,8.828,1.883,22.198-8.851,27.28c-4.924,2.332-11.236,3.361-16.923,1.829
					c-3.46-0.93-6.525-2.723-8.601-5.229c-1.506-1.822-2.432-4.164-2.665-6.498c3.062,2.284,7.654,2.791,11.226,1.029
					c3.259-1.606,4.535-4.956,3.584-7.974c-1.149-3.662-4.616-5.047-7.918-5.414c-3.622-0.401-7.154,1.659-9.087,4.179
					c-2.559,3.345-2.041,7.668-0.41,11.199c1.473,3.204,3.956,5.674,7.003,7.386c1.229,1.053,2.788,1.917,4.839,2.5
					c6.081,1.722,14.091,1.058,19.665-1.724c5.923-2.956,9.726-9.037,10.858-14.498c0.747-3.603,0.294-7.45-0.194-11.052
					c-0.37-2.72-0.774-5.655-1.63-8.394c-0.005-0.05-0.011-0.101-0.019-0.148c5.288-2.949,8.937-7.701,7.893-13.294
					c-0.754-4.063-4.277-6.472-8.491-7.352c-0.931-0.29-1.888-0.471-2.856-0.564c-0.203-1.175-0.407-2.348-0.602-3.523
					c-0.17-1.136-0.364-2.268-0.564-3.404c-0.275-1.651-0.558-3.304-0.851-4.953c-0.266-1.691-0.473-3.388-0.573-5.089
					c0.001-0.272,0.005-0.54,0.01-0.811C50.515,117.434,50.988,117.185,51.475,116.945z M54.307,103.981
					c1.147-1.136,2.624-1.989,4.543-2.303c2.689,0.17,4.375,1.438,3.227,4.053c-0.745,1.699-1.943,3.066-3.304,4.445
					c-1.074,1.09-2.238,2.048-3.458,2.939c-0.507,0.323-1.013,0.648-1.514,0.967c-1.095,0.697-2.185,1.399-3.271,2.101
					c-0.126,0.088-0.26,0.162-0.411,0.213c-0.042,0.019-0.053,0.053-0.05,0.08c-0.346-2.526,0.58-5.685,1.505-8.072
					C52.186,106.82,53.046,105.231,54.307,103.981z M61.126,145.974c0.713,3.791-1.659,6.971-4.777,9.393
					c-0.139,0.085-0.278,0.171-0.421,0.253c-0.733-5.57-1.685-11.154-2.705-16.681c-0.005-0.019-0.009-0.037-0.012-0.056
					C57.243,139.731,60.482,142.555,61.126,145.974z M50.129,134.81c0.035,0.199,0.069,0.401,0.104,0.601
					c-0.037-0.205-4.328,0.858-4.716,1.005c-4.164,1.561-7.115,5.241-7.094,9.061c0.09,0.963,0.405,1.896,1.017,2.627
					c1.01,1.205,2.682,1.808,4.376,1.811c-0.015-0.013-0.015-0.029-0.042-0.037c-2.308-0.832-3.406-1.795-3.786-3.919
					c-0.32-1.801,0.51-3.476,1.941-4.786c2.177-2.001,5.647-2.728,8.848-2.579c0.968,5.764,1.878,11.536,3.151,17.261
					c0.05,0.237-0.05-0.239,0,0c0.316,1.454-8.09,2.749-9.133,2.783c-6.354,0.194-12.403-1.967-16.12-6.346
					c-3.84-4.528-3.395-10.657-0.803-15.608c2.545-4.863,6.504-8.317,11.132-11.853c1.5-1.146,3.031-2.236,4.582-3.311
					c1.159-0.779,2.326-1.539,3.496-2.302c0.485-0.26,0.974-0.518,1.464-0.776C48.357,123.916,49.176,129.418,50.129,134.81z"/>
				<g>
					<path d="M51.531,116.966c1.258-0.627,2.485-1.312,3.678-2.057c1.169-0.731,2.263-1.581,3.441-2.294
						c2.002-1.212,4.037-2.467,5.809-4.003c1.403-1.217,2.925-2.865,2.95-4.842c0.025-1.908-1.597-3.09-3.281-3.553
						c-4.342-1.192-9.113,0.775-11.891,4.198c-1.642,2.022-2.687,4.462-3.168,7.013c-0.249,1.322-0.282,2.647-0.411,3.98
						c-0.033,0.343-0.069,0.685-0.098,1.029c-0.029,0.349,0.023,0.843-0.227,1.12c-0.206,0.228-0.603,0.395-0.864,0.568
						c-0.389,0.257-0.772,0.533-1.18,0.76c-2.301,1.276-4.621,2.488-6.848,3.894c-2.198,1.388-4.329,2.89-6.327,4.556
						c-3.789,3.16-7.125,6.976-9.246,11.463c-1.985,4.2-2.66,9.023-0.277,13.208c2.029,3.562,5.672,5.916,9.483,7.204
						c2.081,0.704,4.258,1.116,6.449,1.261c2.283,0.152,4.685,0.191,6.938-0.272c1.243-0.256,2.475-0.598,3.696-0.943
						c1.239-0.35,2.563-0.677,3.714-1.269c0.147-0.076,0.518-0.232,0.496-0.448c-0.063,0.017-0.126,0.034-0.189,0.051
						c1.613,7.667,3.052,16.191-0.127,23.677c-1.608,3.786-4.472,6.716-8.227,8.4c-5.042,2.26-10.958,3.046-16.336,1.599
						c-2.701-0.726-5.288-2.009-7.351-3.917c-2.215-2.049-3.574-4.796-3.897-7.795c-0.061,0.02-0.122,0.04-0.183,0.06
						c2.229,1.634,5.073,2.325,7.812,2.033c2.597-0.277,5.246-1.469,6.606-3.796c1.278-2.186,1.114-4.948-0.281-7.041
						c-1.399-2.099-3.851-3.12-6.259-3.519c-2.766-0.458-5.466,0.241-7.741,1.871c-2.364,1.695-3.935,4.192-4.1,7.129
						c-0.165,2.948,0.886,5.965,2.503,8.401c0.826,1.244,1.834,2.362,2.971,3.329c0.593,0.505,1.221,0.968,1.875,1.391
						c0.587,0.38,1.148,0.754,1.714,1.164c2.404,1.743,5.425,2.435,8.333,2.74c3.032,0.318,6.124,0.172,9.117-0.405
						c2.807-0.541,5.595-1.461,8.026-2.989c2.411-1.515,4.454-3.577,6.045-5.933c1.511-2.238,2.647-4.755,3.244-7.392
						c0.784-3.459,0.454-7.042,0.001-10.523c-0.23-1.763-0.466-3.528-0.787-5.277c-0.164-0.891-0.351-1.778-0.577-2.655
						c-0.1-0.389-0.335-0.861-0.354-1.256c-0.019-0.387,0.554-0.565,0.858-0.755c2.285-1.424,4.373-3.29,5.724-5.645
						c1.322-2.306,1.804-5.054,1.151-7.65c-0.619-2.459-2.394-4.352-4.599-5.521c-1.217-0.645-2.5-1.005-3.823-1.35
						c-0.373-0.097-0.743-0.205-1.121-0.287c-0.44-0.095-0.907-0.114-1.34-0.225c-0.323-0.083-0.381-0.195-0.441-0.54
						c-0.036-0.207-0.072-0.415-0.108-0.622c-0.083-0.483-0.166-0.967-0.248-1.45c-0.624-3.687-1.352-7.38-1.829-11.088
						c-0.118-0.917-0.214-1.837-0.28-2.759c-0.027-0.376-0.187-1.097,0.118-1.388C50.57,117.322,51.159,117.151,51.531,116.966
						c0.113-0.056-0.059-0.069-0.113-0.042c-0.484,0.24-0.962,0.489-1.443,0.734c-0.019,0.01-0.037,0.024-0.038,0.046
						c-0.055,3.018,0.597,6.033,1.101,8.995c0.498,2.927,0.972,5.859,1.479,8.785c0.002,0.014,0.025,0.019,0.035,0.02
						c1.251,0.128,2.463,0.437,3.676,0.757c0.929,0.245,1.838,0.574,2.699,1.004c1.703,0.85,3.221,2.125,4.129,3.819
						c1.895,3.536,0.904,7.877-1.456,10.92c-1.499,1.933-3.47,3.45-5.592,4.643c-0.016,0.009-0.041,0.024-0.038,0.046
						c0.074,0.567,0.313,1.139,0.453,1.695c0.147,0.586,0.278,1.176,0.395,1.769c0.234,1.174,0.419,2.357,0.588,3.541
						c0.339,2.376,0.68,4.764,0.777,7.165c0.168,4.183-0.742,8.164-2.839,11.793c-2.018,3.491-4.981,6.472-8.637,8.223
						c-3.88,1.859-8.327,2.582-12.605,2.498c-2.131-0.042-4.269-0.299-6.331-0.849c-1.023-0.273-2.024-0.634-2.966-1.121
						c-0.89-0.46-1.613-1.127-2.465-1.626c-3.518-2.058-6.24-5.252-7.46-9.166c-0.601-1.929-0.828-4.02-0.36-6.004
						c0.49-2.075,1.762-3.826,3.425-5.131c1.798-1.41,4.048-2.32,6.355-2.262c1.827,0.046,3.775,0.546,5.356,1.471
						c3.144,1.841,4.526,5.931,2.642,9.169c-2.212,3.801-7.548,4.466-11.378,3.105c-0.961-0.342-1.863-0.819-2.685-1.421
						c-0.038-0.028-0.189-0.003-0.183,0.06c0.292,2.712,1.43,5.266,3.323,7.238c1.73,1.802,3.931,3.113,6.267,3.969
						c5.046,1.85,10.71,1.563,15.762-0.116c2.166-0.72,4.277-1.682,6.077-3.102c1.499-1.184,2.756-2.65,3.724-4.295
						c1.987-3.376,2.74-7.341,2.877-11.216c0.174-4.922-0.704-9.748-1.713-14.544c-0.011-0.054-0.195-0.008-0.189,0.051
						c0.027,0.266-0.753,0.51-0.919,0.577c-0.63,0.255-1.279,0.462-1.929,0.661c-1.329,0.407-2.674,0.767-4.024,1.094
						c-1.756,0.425-3.555,0.547-5.359,0.539c-2.354-0.011-4.699-0.235-6.983-0.819c-3.838-0.981-7.604-2.924-10.097-6.077
						c-1.167-1.476-2.01-3.203-2.404-5.046c-0.496-2.322-0.205-4.736,0.5-6.983c1.427-4.544,4.383-8.597,7.761-11.896
						c3.563-3.479,7.737-6.29,12.052-8.747c1.086-0.618,2.185-1.214,3.294-1.792c0.482-0.251,0.92-0.54,1.373-0.84
						c0.288-0.19,0.576-0.38,0.864-0.569c0.351-0.23,0.359-0.16,0.385-0.56c0.084-1.285,0.177-2.579,0.3-3.861
						c0.12-1.253,0.346-2.497,0.709-3.703c1.423-4.719,5.246-8.842,10.3-9.528c2.089-0.283,4.933-0.023,6.429,1.661
						c1.301,1.466,0.773,3.471-0.266,4.92c-1.311,1.829-3.267,3.155-5.125,4.372c-0.997,0.653-2.032,1.246-3.028,1.897
						c-1.093,0.714-2.131,1.498-3.246,2.182c-1.088,0.667-2.206,1.284-3.349,1.854C51.305,116.98,51.477,116.993,51.531,116.966z"/>
					<path d="M54.394,103.979c1.356-1.319,3.392-2.504,5.337-2.142c1.245,0.231,2.593,0.911,2.617,2.348
						c0.013,0.809-0.34,1.583-0.717,2.28c-0.463,0.856-1.05,1.638-1.688,2.371c-1.382,1.587-2.961,3.065-4.698,4.259
						c-0.995,0.684-2.037,1.306-3.053,1.959c-0.465,0.298-0.929,0.598-1.392,0.897c-0.156,0.101-0.68,0.336-0.737,0.423
						c-0.037,0.057-0.073,0.04-0.087,0.115c0.063-0.013,0.126-0.026,0.188-0.039c-0.282-2.248,0.288-4.548,1-6.667
						C51.876,107.659,52.799,105.593,54.394,103.979c0.048-0.049-0.136-0.034-0.174,0.004c-1.602,1.621-2.529,3.694-3.246,5.827
						c-0.714,2.126-1.283,4.434-1.001,6.69c0.007,0.054,0.18,0.006,0.188-0.039c0.012-0.061,0.313-0.189,0.377-0.227
						c0.255-0.154,0.501-0.323,0.751-0.485c0.567-0.366,1.135-0.731,1.703-1.095c0.961-0.615,1.958-1.194,2.87-1.882
						c1.776-1.34,3.449-2.877,4.825-4.631c0.921-1.174,2.237-3.002,1.759-4.594c-0.396-1.321-1.949-1.754-3.164-1.883
						c-0.893-0.095-1.866,0.278-2.668,0.648c-0.895,0.413-1.69,0.985-2.395,1.671C54.172,104.03,54.356,104.016,54.394,103.979z"/>
					<path d="M61.032,145.999c0.334,1.89-0.081,3.754-1.063,5.391c-0.972,1.619-2.459,3.252-4.097,4.209
						c0.05-0.001,0.101-0.003,0.151-0.004c-0.373-2.828-0.799-5.648-1.262-8.462c-0.454-2.759-0.881-5.538-1.455-8.275
						c-0.051,0.024-0.103,0.047-0.154,0.071C56.744,139.71,60.278,142.213,61.032,145.999c0.011,0.053,0.201,0.008,0.189-0.051
						c-0.76-3.82-4.332-6.324-7.951-7.112c-0.034-0.007-0.165,0.017-0.154,0.071c0.574,2.737,1.001,5.516,1.455,8.275
						c0.463,2.814,0.889,5.635,1.262,8.462c0.007,0.049,0.131,0.008,0.151-0.004c1.661-0.97,3.172-2.616,4.158-4.255
						c0.994-1.653,1.416-3.529,1.079-5.437C61.211,145.896,61.021,145.94,61.032,145.999z"/>
					<path d="M50.035,134.835c0.035,0.2,0.069,0.401,0.104,0.601c0.063-0.017,0.126-0.034,0.189-0.051
						c-0.085-0.149-0.623,0.004-0.738,0.024c-0.626,0.108-1.248,0.251-1.866,0.396c-1.271,0.298-2.472,0.593-3.637,1.202
						c-1.741,0.911-3.285,2.242-4.349,3.901c-0.984,1.533-1.714,3.565-1.278,5.394c0.589,2.467,2.939,3.625,5.317,3.657
						c0.023,0,0.173-0.041,0.127-0.081c-0.288-0.253-0.843-0.346-1.196-0.517c-0.443-0.215-0.871-0.47-1.244-0.793
						c-0.655-0.567-1.063-1.318-1.277-2.151c-0.645-2.508,0.863-4.788,2.942-6.093c2.088-1.311,4.661-1.741,7.093-1.702
						c0.195,0.003,0.286-0.029,0.42,0.106c0.129,0.131,0.117,0.342,0.145,0.514c0.058,0.347,0.116,0.695,0.174,1.042
						c0.116,0.695,0.231,1.389,0.347,2.084c0.232,1.389,0.466,2.778,0.708,4.166c0.549,3.149,1.166,6.28,1.831,9.406
						c0.012,0.056,0.189,0.007,0.189-0.051c0-0.04-0.018-0.086-0.026-0.125c-0.012-0.056-0.189-0.007-0.189,0.051
						c0,0.483-0.338,0.689-0.755,0.902c-0.667,0.341-1.403,0.553-2.123,0.749c-1.58,0.43-3.199,0.736-4.819,0.972
						c-4.241,0.619-8.929-0.344-12.672-2.398c-2.156-1.183-4.152-2.832-5.522-4.891c-1.394-2.094-2.032-4.593-1.972-7.097
						c0.125-5.209,3.018-9.902,6.546-13.552c2.157-2.231,4.599-4.179,7.075-6.042c2.872-2.161,5.84-4.32,9.023-5.998
						c-0.05,0.002-0.101,0.003-0.151,0.004C48.274,123.97,49.081,129.432,50.035,134.835c0.009,0.053,0.2,0.009,0.189-0.051
						c-0.954-5.404-1.761-10.866-1.586-16.368c0.002-0.049-0.136-0.004-0.151,0.004c-2.953,1.558-5.703,3.538-8.386,5.52
						c-2.312,1.709-4.589,3.493-6.673,5.477c-3.82,3.638-7.113,8.311-7.604,13.706c-0.237,2.6,0.237,5.25,1.564,7.516
						c1.287,2.198,3.291,3.965,5.476,5.241c2.208,1.289,4.673,2.105,7.193,2.509c1.875,0.301,3.831,0.443,5.719,0.184
						c1.83-0.25,3.668-0.593,5.445-1.1c0.738-0.21,1.51-0.439,2.174-0.833c0.385-0.228,0.613-0.433,0.613-0.876
						c-0.063,0.017-0.126,0.034-0.189,0.051c0.008,0.039,0.026,0.085,0.026,0.125c0.063-0.017,0.126-0.034,0.189-0.051
						c-1.222-5.746-2.192-11.53-3.164-17.323c-0.004-0.021-0.042-0.021-0.056-0.021c-2.839-0.118-5.934,0.356-8.283,2.063
						c-2.237,1.625-3.59,4.568-2.011,7.132c0.306,0.497,0.724,0.906,1.207,1.233c0.263,0.178,0.542,0.333,0.828,0.471
						c0.341,0.165,0.894,0.259,1.172,0.503c0.042-0.027,0.085-0.054,0.127-0.081c-2.079-0.028-4.253-0.949-5.024-3.016
						c-0.617-1.654-0.195-3.508,0.569-5.045c1.433-2.882,4.221-4.898,7.302-5.67c0.65-0.163,1.303-0.318,1.958-0.459
						c0.119-0.026,1.403-0.376,1.48-0.241c0.028,0.049,0.199,0.009,0.189-0.051c-0.035-0.2-0.069-0.401-0.104-0.601
						C50.215,134.732,50.025,134.775,50.035,134.835z"/>
				</g>
			</g>
			
				<linearGradient id="SVGID_00000014612450970137535020000014720057590186833285_" gradientUnits="userSpaceOnUse" x1="29.6581" y1="164.4233" x2="23.9027" y2="175.3283">
				<stop  offset="0" style="stop-color:#FFFFFF"/>
				<stop  offset="1" style="stop-color:#000000"/>
			</linearGradient>
			<path style="fill:url(#SVGID_00000014612450970137535020000014720057590186833285_);" d="M31.757,174.503
				c0,3.414-3.321,6.184-7.418,6.184s-7.419-2.77-7.419-6.184s3.322-6.182,7.419-6.182S31.757,171.089,31.757,174.503z"/>
			
				<linearGradient id="SVGID_00000085241612615966946160000011825448999018095747_" gradientUnits="userSpaceOnUse" x1="19.7834" y1="167.1602" x2="32.7427" y2="151.9256">
				<stop  offset="0" style="stop-color:#FFFFFF"/>
				<stop  offset="1" style="stop-color:#000000"/>
			</linearGradient>
			<path style="fill:url(#SVGID_00000085241612615966946160000011825448999018095747_);" d="M28.119,135.219
				c0,0-7.346,10.733,0.398,18.174c7.741,7.441,16.513,5.792,17.303,5.663c0.793-0.13-10.824,3.031-19.202-4.937
				C18.243,146.149,29.803,132.005,28.119,135.219z"/>
			
				<linearGradient id="SVGID_00000019673676301509090020000013331210136814672814_" gradientUnits="userSpaceOnUse" x1="47.4863" y1="153.6911" x2="55.8238" y2="136.2782">
				<stop  offset="0" style="stop-color:#FFFFFF"/>
				<stop  offset="1" style="stop-color:#000000"/>
			</linearGradient>
			<path style="fill:url(#SVGID_00000019673676301509090020000013331210136814672814_);" d="M40.744,141.738
				c0,0,4.522-5.993,14.323-3.161c9.796,2.831,7.19,10.207,6.793,10.93c-0.396,0.727,2.38-2.812,1.182-6.519
				c-1.19-3.707-7.662-8.229-15.8-6.453C47.243,136.535,41.948,137.918,40.744,141.738z"/>
			
				<linearGradient id="SVGID_00000163792058354332914400000005873390937350812821_" gradientUnits="userSpaceOnUse" x1="36.2072" y1="119.1637" x2="67.1501" y2="101.5031">
				<stop  offset="0" style="stop-color:#FFFFFF"/>
				<stop  offset="1" style="stop-color:#000000"/>
			</linearGradient>
			<path style="fill:url(#SVGID_00000163792058354332914400000005873390937350812821_);" d="M58.466,101.306
				c0,0,5.21-0.46,4.66,3.161c-0.556,3.621-4.66,6.982-4.66,6.982s5.227-2.201,7.029-5.081
				C67.298,103.489,64.785,99.397,58.466,101.306z"/>
		</g>
	</g>
	<path style="fill:#FFFFFF;" d="M275.472,184.664c-13.282,46.479-61.729,73.39-108.208,60.108
		c-46.48-13.283-73.391-61.729-60.109-108.208c13.282-46.48,61.729-73.391,108.209-60.109
		C261.843,89.738,288.754,138.185,275.472,184.664z"/>
</g>
</svg>
